# Blender 3.5.1
# www.blender.org
mtllib skala.mtl
o Root
v -6.560711 -0.190600 1.603736
v -6.411178 4.692060 1.595209
v -9.342045 0.828040 -19.543476
v -9.251892 3.771709 -19.548615
v 10.357557 1.105629 -3.565527
v 10.395513 2.344948 -3.567697
v 0.844545 1.179857 -22.659191
v 0.893741 2.786329 -22.661991
v -9.617601 1.236097 -12.120536
v -7.417192 0.167041 -5.466819
v -7.288699 4.362818 -5.474150
v -9.551105 3.407196 -12.124330
v 7.073153 -0.284484 -9.906159
v 5.196843 -0.290522 -16.667286
v 5.328498 4.008540 -16.674799
v 7.201645 3.911304 -9.913490
v -2.669052 0.576166 3.342118
v -2.573545 3.694659 3.336668
v 8.196320 3.359071 0.037154
v 8.100814 0.240579 0.042604
v 2.508535 1.564656 6.056883
v 2.534137 2.400674 6.055429
v 5.421375 2.310713 5.170877
v 5.395773 1.474695 5.172342
v 9.018009 0.436965 -11.800378
v 7.842515 0.433182 -16.036173
v 7.924995 3.126511 -16.040874
v 9.098513 3.065583 -11.804962
v 9.245353 1.215666 -13.224641
v 8.774115 1.214149 -14.922728
v 8.807175 2.293880 -14.924620
v 9.277634 2.269464 -13.226480
v 9.874372 1.721899 -14.310015
v -9.152336 0.959206 -3.994034
v -8.596244 0.726991 0.596783
v -8.499156 3.897233 0.591248
v -9.068914 3.683460 -3.998790
v -9.538636 1.613658 -2.850671
v -9.243825 1.490551 -0.416945
v -9.192364 3.171200 -0.419873
v -9.494409 3.057870 -2.853204
v -10.073217 2.355089 -1.548565
v -7.550759 3.154966 -20.866964
v -7.606495 1.334926 -20.863791
v -1.308229 1.552449 -22.790203
v -1.277818 2.545713 -22.791937
v -4.844127 2.157192 -23.161972
v 5.801755 5.612266 -8.392066
v 8.182526 4.444679 -3.661782
v -4.345523 6.194260 0.186750
v -4.999632 5.948837 -5.082892
v -4.360675 5.440103 -8.200530
v -5.546011 4.939435 -11.684698
v 2.249745 5.254495 -14.068791
v 3.231127 5.203548 -10.526396
v 3.089706 6.243466 -5.860536
v 4.042591 5.776149 -3.967268
v -0.971691 6.476409 -2.426919
v -1.233495 6.378177 -4.536066
v 6.380629 3.794524 1.612712
v -0.165827 3.998509 3.618315
v 4.693879 3.157278 4.733245
v 2.938870 3.211966 5.270915
v 5.118251 3.684678 2.562530
v 1.403180 3.800444 3.700700
v 4.161038 3.323051 4.333417
v 3.165081 3.354082 4.638540
v 4.614315 3.851777 3.016138
v 2.083201 3.930646 3.791580
v 3.962151 3.605392 4.222663
v 3.283593 3.626539 4.430548
v 2.559996 2.287137 -21.312782
v 2.538358 1.580862 -21.311543
v 4.451832 0.934414 -18.677229
v 4.509715 2.824476 -18.680531
v 4.225001 1.884072 -20.516823
v -5.757038 0.983976 2.428513
v -5.680797 3.473384 2.424164
v -3.772879 1.374914 3.314817
v -3.724186 2.964864 3.312039
v -5.283191 2.218251 4.091585
vn -0.7906 -0.6077 0.0750
vn -0.8062 0.5914 0.0157
vn -0.6547 0.6443 -0.3952
vn -0.6930 -0.6044 -0.3930
vn 0.2902 0.5971 -0.7478
vn 0.0086 0.5077 -0.8615
vn -0.4040 0.5273 -0.7474
vn 0.4711 -0.8808 0.0469
vn 0.6855 0.7222 -0.0924
vn 0.9224 0.3668 0.1207
vn 0.8230 -0.5657 0.0517
vn -0.1730 0.7461 0.6429
vn -0.4250 0.6789 0.5988
vn -0.5740 0.3054 0.7598
vn -0.0416 0.2943 0.9548
vn -0.5291 -0.8430 -0.0968
vn -0.3796 -0.7590 0.5289
vn 0.5250 0.7463 0.4092
vn -0.0785 0.8586 0.5066
vn 0.4244 0.7683 -0.4791
vn -0.2287 0.9264 -0.2990
vn 0.0036 0.9452 -0.3265
vn 0.2530 -0.6163 -0.7457
vn 0.3340 -0.8376 -0.4322
vn 0.5807 -0.3470 -0.7364
vn 0.8150 -0.3556 -0.4576
vn 0.7856 -0.5567 0.2701
vn 0.8182 0.5085 0.2683
vn -0.6887 -0.5041 0.5211
vn -0.7879 -0.4867 -0.3773
vn -0.6723 0.7257 -0.1462
vn -0.1759 -0.7364 0.6533
vn 0.5686 -0.7461 0.3465
vn 0.4949 -0.5380 0.6824
vn -0.0579 -0.5208 0.8517
vn 0.6418 0.7017 0.3094
vn 0.6008 0.3094 0.7371
vn -0.0666 0.3302 0.9415
vn -0.1066 0.9759 0.1906
vn 0.2504 0.9647 0.0813
vn 0.5350 -0.5534 -0.6384
vn 0.7659 -0.3987 -0.5043
vn 0.9147 -0.4022 0.0387
vn 0.5678 0.5174 -0.6402
vn 0.9376 0.3456 0.0374
vn 0.9637 -0.0300 -0.2653
vn 0.7888 0.3494 -0.5057
vn -0.7567 0.5326 -0.3791
vn -0.9365 -0.3140 -0.1564
vn -0.9155 0.3701 -0.1576
vn -0.6565 0.5472 0.5193
vn -0.8829 -0.3171 0.3463
vn -0.8618 0.3718 0.3451
vn -0.9934 0.0306 0.1107
vn -0.0226 -0.5103 -0.8597
vn -0.2345 0.0055 -0.9721
vn -0.4356 -0.5042 -0.7456
vn -0.3374 0.8568 -0.3900
vn 0.1007 0.9762 0.1922
vn -0.0300 0.9916 -0.1259
vn 0.2053 0.8652 -0.4575
vn -0.0413 0.9744 0.2211
vn 0.1858 0.9629 0.1959
vn 0.0922 0.9914 -0.0929
vn 0.2400 0.9435 0.2284
vn 0.0670 0.9656 0.2511
vn 0.1401 0.9634 0.2287
vn 0.0826 0.8178 0.5695
vn 0.2969 0.8112 0.5038
vn 0.2663 0.8656 0.4240
vn 0.2867 0.9570 0.0449
vn 0.3314 0.7714 0.5432
vn 0.0664 0.8719 0.4852
vn -0.1575 0.9708 0.1809
vn 0.0739 0.7795 0.6221
vn 0.8352 0.3035 -0.4587
vn 0.7516 -0.0242 -0.6591
vn 0.6008 0.3082 -0.7376
vn -0.5915 -0.2671 0.7608
vn -0.0594 -0.2878 0.9558
vn -0.3841 0.0134 0.9232
vt 0.555537 0.156897
vt 0.574171 0.063500
vt 0.109864 0.961444
vt 0.451496 0.104831
vt 0.931447 0.240848
vt 0.543992 0.920465
vt 0.971560 0.209979
vt 0.538804 0.498802
vt 0.534292 0.522296
vt 0.514908 0.520737
vt 0.114130 0.638707
vt 0.942065 0.411977
vt 0.547581 0.721233
vt 0.963926 0.424090
vt 0.817828 0.190331
vt 0.676025 0.181924
vt 0.692259 0.089841
vt 0.268980 0.952505
vt 0.833141 0.146761
vt 0.411680 0.963330
vt 0.687323 0.493292
vt 0.825101 0.482722
vt 0.415200 0.672230
vt 0.875048 0.547759
vt 0.663881 0.576244
vt 0.272554 0.671000
vt 0.495950 0.232185
vt 0.057576 0.902487
vt 0.427441 0.207355
vt 0.061289 0.697465
vt 0.422570 0.445372
vt 0.491806 0.412866
vt 0.457670 0.311297
vt 0.446918 0.309246
vt 0.442359 0.343550
vt 0.452707 0.344479
vt 0.728653 0.536107
vt 0.801125 0.525263
vt 0.388878 0.621423
vt 0.823689 0.564564
vt 0.714881 0.578391
vt 0.299511 0.620652
vt 0.750251 0.550905
vt 0.783559 0.547308
vt 0.362161 0.601189
vt 0.793582 0.564402
vt 0.746240 0.570319
vt 0.326334 0.600880
vt 0.344348 0.580099
vt 0.769627 0.567281
vt 0.644894 0.143937
vt 0.592855 0.136856
vt 0.604449 0.097060
vt 0.654962 0.112063
vt 0.635009 0.132992
vt 0.609883 0.128835
vt 0.615378 0.110226
vt 0.639576 0.117865
vt 0.625045 0.122432
vt 0.561012 0.882225
vt 0.980402 0.255454
vt 0.949781 0.268426
vt 0.955303 0.381690
vt 0.972026 0.386938
vt 0.563230 0.759042
vt 0.591328 0.820334
vt 0.980716 0.323683
vt 0.236326 0.718297
vt 0.146818 0.694044
vt 0.145973 0.910887
vt 0.236147 0.899866
vt 0.308398 0.883588
vt 0.374467 0.889802
vt 0.375361 0.742439
vt 0.309230 0.743875
vt 0.208923 0.770166
vt 0.175133 0.762198
vt 0.174466 0.848592
vt 0.208426 0.842701
vt 0.041596 0.737321
vt 0.405311 0.396218
vt 0.039339 0.861944
vt 0.411016 0.257047
vt 0.430300 0.337506
vt 0.432442 0.313808
vt 0.403657 0.364206
vt 0.030920 0.764087
vt 0.408443 0.287887
vt 0.029640 0.834809
vt 0.422984 0.332697
vt 0.424288 0.317539
vt 0.403967 0.350249
vt 0.024850 0.775250
vt 0.407581 0.300367
vt 0.023977 0.823434
vt 0.418239 0.330161
vt 0.419726 0.319662
vt 0.519484 0.691160
vt 0.935977 0.449771
vt 0.925668 0.442752
vt 0.873697 0.476484
vt 0.893965 0.505782
vt 0.461284 0.669616
vt 0.499479 0.662056
vt 0.912827 0.473950
vt 0.518721 0.166474
vt 0.467682 0.141398
vt 0.489695 0.204774
vt 0.455989 0.190839
vt 0.483547 0.175319
s 1
usemtl Root.007
f 9/15/1 12/19/2 4/7/3 3/5/4
f 4/6/3 8/13/5 46/65/6 43/60/7
f 13/21/8 16/25/9 6/9/10 5/8/11
f 18/29/12 2/4/13 78/107/14 80/109/15
f 10/16/16 13/21/8 5/8/11 1/1/17
f 2/3/13 6/11/10 49/69/18 50/70/19
f 8/13/5 4/6/3 12/20/2 15/23/20
f 15/23/20 12/20/2 53/73/21 54/74/22
f 3/5/4 7/12/23 14/22/24 9/15/1
f 9/15/1 14/22/24 13/21/8 10/16/16
f 14/22/24 7/12/23 73/100/25 74/101/26
f 16/25/9 13/21/8 25/37/27 28/41/28
f 10/16/16 1/1/17 35/52/29 34/51/30
f 10/16/16 11/17/31 12/19/2 9/15/1
f 17/27/32 20/32/33 24/36/34 21/33/35
f 1/1/17 5/8/11 20/32/33 17/27/32
f 6/11/10 2/3/13 18/28/12 19/30/36
f 5/8/11 6/10/10 19/31/36 20/32/33
f 24/36/34 23/35/37 22/34/38 21/33/35
f 18/29/12 17/27/32 21/33/35 22/34/38
f 19/30/36 18/28/12 61/82/39 60/80/40
f 20/32/33 19/31/36 23/35/37 24/36/34
f 25/37/27 26/38/41 30/44/42 29/43/43
f 15/23/20 16/26/9 28/42/28 27/39/44
f 13/21/8 14/22/24 26/38/41 25/37/27
f 14/22/24 15/24/20 27/40/44 26/38/41
f 32/47/45 29/43/43 33/50/46
f 28/41/28 25/37/27 29/43/43 32/47/45
f 27/39/44 28/42/28 32/48/45 31/45/47
f 26/38/41 27/40/44 31/46/47 30/44/42
f 31/45/47 32/48/45 33/49/46
f 30/44/42 31/46/47 33/50/46
f 29/43/43 30/44/42 33/50/46
f 37/54/48 34/51/30 38/55/49 41/58/50
f 2/2/13 11/17/31 37/54/48 36/53/51
f 1/1/17 2/2/13 36/53/51 35/52/29
f 11/17/31 10/16/16 34/51/30 37/54/48
f 39/56/52 40/57/53 42/59/54
f 35/52/29 36/53/51 40/57/53 39/56/52
f 36/53/51 37/54/48 41/58/50 40/57/53
f 34/51/30 35/52/29 39/56/52 38/55/49
f 40/57/53 41/58/50 42/59/54
f 38/55/49 39/56/52 42/59/54
f 41/58/50 38/55/49 42/59/54
f 46/64/6 45/63/55 47/67/56
f 3/5/4 4/7/3 43/61/7 44/62/57
f 8/14/5 7/12/23 45/63/55 46/64/6
f 7/12/23 3/5/4 44/62/57 45/63/55
f 45/63/55 44/62/57 47/67/56
f 43/60/7 46/65/6 47/66/56
f 44/62/57 43/61/7 47/67/56
f 51/71/58 50/70/19 58/78/59 59/79/60
f 11/18/31 2/3/13 50/70/19 51/71/58
f 16/26/9 11/18/31 51/71/58 48/68/61
f 6/11/10 16/26/9 48/68/61 49/69/18
f 54/74/22 53/73/21 52/72/62 55/75/63
f 11/18/31 16/26/9 55/75/63 52/72/62
f 16/26/9 15/23/20 54/74/22 55/75/63
f 12/20/2 11/18/31 52/72/62 53/73/21
f 56/76/64 59/79/60 58/78/59 57/77/65
f 49/69/18 48/68/61 56/76/64 57/77/65
f 48/68/61 51/71/58 59/79/60 56/76/64
f 50/70/19 49/69/18 57/77/65 58/78/59
f 60/80/40 61/82/39 65/89/66 64/87/67
f 18/29/12 22/34/38 63/85/68 61/83/39
f 23/35/37 19/31/36 60/81/40 62/84/69
f 22/34/38 23/35/37 62/84/69 63/85/68
f 66/90/70 64/86/67 68/92/71 70/96/72
f 62/84/69 60/81/40 64/86/67 66/90/70
f 63/85/68 62/84/69 66/90/70 67/91/73
f 61/83/39 63/85/68 67/91/73 65/88/66
f 68/92/71 69/94/74 71/97/75 70/96/72
f 67/91/73 66/90/70 70/96/72 71/97/75
f 65/88/66 67/91/73 71/97/75 69/94/74
f 64/87/67 65/89/66 69/95/74 68/93/71
f 75/102/76 74/101/26 76/105/77
f 8/13/5 15/23/20 75/103/76 72/98/78
f 7/12/23 8/14/5 72/99/78 73/100/25
f 15/24/20 14/22/24 74/101/26 75/102/76
f 74/101/26 73/100/25 76/105/77
f 72/98/78 75/103/76 76/104/77
f 73/100/25 72/99/78 76/105/77
f 77/106/79 79/108/80 81/110/81
f 2/4/13 1/1/17 77/106/79 78/107/14
f 1/1/17 17/27/32 79/108/80 77/106/79
f 17/27/32 18/29/12 80/109/15 79/108/80
f 78/107/14 77/106/79 81/110/81
f 80/109/15 78/107/14 81/110/81
f 79/108/80 80/109/15 81/110/81
